<svg width="32" height="20" viewBox="0 0 32 20" fill="none" xmlns="http://www.w3.org/2000/svg">
<path d="M30.3872 20H1.61214C0.721875 20 0 19.2609 0 18.3501V1.64917C0 0.738453 0.721875 0 1.61214 0H30.3872C31.2775 0 31.9993 0.738453 31.9993 1.64917V18.3501C32 19.2609 31.2781 20 30.3872 20Z" fill="#33AD73"/>
<path d="M23.9038 9.70769L21.4571 7.20477C21.3967 7.14301 21.3249 7.11212 21.2424 7.11212C21.1599 7.11212 21.0881 7.14301 21.0277 7.20477C20.9673 7.26654 20.9371 7.33997 20.9371 7.42507V8.67619H19.8671C17.5954 8.67619 16.202 9.33297 15.6861 10.6459C15.517 11.0823 15.4332 11.6252 15.4332 12.2737C15.4332 12.8145 15.6358 13.5496 16.0403 14.4781C16.0497 14.5008 16.0665 14.5399 16.0906 14.5955C16.1148 14.6511 16.1363 14.6998 16.155 14.7424C16.1745 14.7849 16.1946 14.8206 16.2174 14.8501C16.2557 14.9057 16.3 14.9331 16.3509 14.9331C16.3986 14.9331 16.4361 14.9167 16.463 14.8844C16.4898 14.8522 16.5032 14.811 16.5032 14.7623C16.5032 14.7327 16.4992 14.6895 16.4912 14.6325C16.4831 14.5756 16.4791 14.5371 16.4791 14.5179C16.463 14.2963 16.4549 14.0959 16.4549 13.9167C16.4549 13.5873 16.4831 13.2929 16.5388 13.0321C16.5945 12.7713 16.6716 12.5455 16.7702 12.3554C16.8689 12.1646 16.9963 11.9999 17.1527 11.862C17.309 11.7233 17.4767 11.6101 17.6565 11.5223C17.8363 11.4344 18.0483 11.3651 18.2918 11.3143C18.5354 11.2635 18.7809 11.2285 19.0278 11.2093C19.2747 11.1894 19.5544 11.1798 19.8664 11.1798H20.9365V12.4309C20.9365 12.5153 20.9666 12.5888 21.027 12.6505C21.0874 12.7123 21.1592 12.7432 21.2417 12.7432C21.3242 12.7432 21.396 12.7123 21.4571 12.6505L23.9038 10.1476C23.9642 10.0858 23.9944 10.0124 23.9944 9.92799C23.9944 9.84289 23.9642 9.77014 23.9038 9.70769Z" fill="white"/>
<path fill-rule="evenodd" clip-rule="evenodd" d="M13.0635 9.81403H11.6627V14.9331H9.58023V9.81403H8.59134V8.00633H9.58023V6.83482C9.58023 5.99686 9.97337 4.68878 11.6814 4.68878L13.2198 4.69496V6.44913H12.1014C11.921 6.44913 11.662 6.54246 11.662 6.94257V8.00496H13.2466L13.0635 9.81403Z" fill="white"/>
</svg>
