<svg width="33" height="20" viewBox="0 0 33 20" fill="none" xmlns="http://www.w3.org/2000/svg">
<g clip-path="url(#clip0_65_4231)">
<path d="M30.3943 19.5556H1.61252C0.722043 19.5556 0 18.8328 0 17.9424V1.61252C0 0.722043 0.722043 0 1.61252 0H30.3943C31.2847 0 32.0068 0.722043 32.0068 1.61252V17.9424C32.0074 18.8328 31.2854 19.5556 30.3943 19.5556Z" fill="#33AD73"/>
<path d="M26.8835 9.49181L24.4362 7.04451C24.3758 6.98412 24.304 6.95392 24.2214 6.95392C24.1389 6.95392 24.0671 6.98412 24.0067 7.04451C23.9463 7.1049 23.9161 7.17671 23.9161 7.25991V8.48323H22.8458C20.5736 8.48323 19.1799 9.12542 18.6638 10.4091C18.4947 10.8359 18.4109 11.3667 18.4109 12.0008C18.4109 12.5296 18.6135 13.2483 19.0182 14.1562C19.0275 14.1784 19.0443 14.2166 19.0685 14.271C19.0926 14.3253 19.1141 14.373 19.1329 14.4146C19.1524 14.4562 19.1725 14.4911 19.1953 14.5199C19.2336 14.5743 19.2778 14.6011 19.3288 14.6011C19.3765 14.6011 19.4141 14.585 19.4409 14.5535C19.4677 14.522 19.4812 14.4817 19.4812 14.434C19.4812 14.4052 19.4771 14.3629 19.4691 14.3072C19.461 14.2515 19.457 14.2139 19.457 14.1952C19.4409 13.9784 19.4329 13.7825 19.4329 13.6073C19.4329 13.2852 19.461 12.9973 19.5167 12.7423C19.5724 12.4873 19.6496 12.2666 19.7482 12.0807C19.8469 11.8941 19.9744 11.7331 20.1307 11.5982C20.2871 11.4627 20.4549 11.3519 20.6347 11.266C20.8145 11.1802 21.0266 11.1124 21.2702 11.0627C21.5138 11.0131 21.7594 10.9788 22.0063 10.9601C22.2533 10.9406 22.5331 10.9312 22.8451 10.9312H23.9154V12.1545C23.9154 12.237 23.9456 12.3089 24.006 12.3692C24.0664 12.4296 24.1382 12.4598 24.2208 12.4598C24.3033 12.4598 24.3751 12.4296 24.4362 12.3692L26.8835 9.92195C26.9439 9.86155 26.974 9.78975 26.974 9.70721C26.9747 9.624 26.9445 9.55287 26.8835 9.49181Z" fill="white"/>
<path fill-rule="evenodd" clip-rule="evenodd" d="M5.06996 8.40326V10.0173V14.4856H7.50289V9.65807V8.40326H5.06996Z" fill="white"/>
<path fill-rule="evenodd" clip-rule="evenodd" d="M6.33776 4.75385C5.63762 4.75385 5.06996 5.32124 5.06996 6.02137C5.06996 6.72124 5.63762 7.28863 6.33776 7.28863C7.0379 7.28863 7.60529 6.72124 7.60529 6.02137C7.60529 5.32124 7.0379 4.75385 6.33776 4.75385V10.8134Z" fill="white"/>
<path fill-rule="evenodd" clip-rule="evenodd" d="M15.8786 9.46674C15.707 8.1015 15.0799 7.24316 13.2343 7.24316C12.1398 7.24316 11.4046 7.64962 11.1041 8.22029H11.0729V7.24316H9.05376V8.63276V14.4854H11.1643V10.896C11.1643 9.94901 11.343 9.03265 12.5139 9.03265C13.6679 9.03265 13.7607 10.1149 13.7607 10.9571V14.4854H15.9339V10.5057H15.9342C15.9342 10.1343 15.9188 9.7867 15.8786 9.46674Z" fill="white"/>
</g>
</svg>
