<svg width="33" height="20" viewBox="0 0 33 20" fill="none" xmlns="http://www.w3.org/2000/svg">
<path d="M30.1762 19.5556H1.60095C0.716862 19.5556 0 18.8328 0 17.9424V1.61252C0 0.722043 0.716862 0 1.60095 0H30.1762C31.0603 0 31.7771 0.722043 31.7771 1.61252V17.9424C31.7778 18.8328 31.0609 19.5556 30.1762 19.5556Z" fill="#33AD73"/>
<path d="M26.6906 9.49181L24.2608 7.04451C24.2009 6.98412 24.1296 6.95392 24.0476 6.95392C23.9657 6.95392 23.8944 6.98412 23.8344 7.04451C23.7745 7.1049 23.7445 7.17671 23.7445 7.25991V8.48323H22.6819C20.426 8.48323 19.0422 9.12542 18.5299 10.4091C18.362 10.8359 18.2787 11.3667 18.2787 12.0008C18.2787 12.5296 18.4799 13.2483 18.8817 14.1562C18.891 14.1784 18.9077 14.2166 18.9317 14.271C18.9556 14.3253 18.977 14.373 18.9956 14.4146C19.0149 14.4562 19.0349 14.4911 19.0576 14.5199C19.0955 14.5743 19.1395 14.6011 19.1902 14.6011C19.2375 14.6011 19.2748 14.585 19.3014 14.5535C19.3281 14.522 19.3414 14.4817 19.3414 14.434C19.3414 14.4052 19.3374 14.3629 19.3294 14.3072C19.3214 14.2515 19.3174 14.2139 19.3174 14.1952C19.3014 13.9784 19.2934 13.7825 19.2934 13.6073C19.2934 13.2852 19.3214 12.9973 19.3767 12.7423C19.432 12.4873 19.5086 12.2666 19.6065 12.0807C19.7045 11.8941 19.8311 11.7331 19.9863 11.5982C20.1415 11.4627 20.3081 11.3519 20.4866 11.266C20.6652 11.1802 20.8757 11.1124 21.1176 11.0627C21.3594 11.0131 21.6032 10.9788 21.8484 10.9601C22.0936 10.9406 22.3714 10.9312 22.6812 10.9312H23.7438V12.1545C23.7438 12.237 23.7738 12.3089 23.8338 12.3692C23.8937 12.4296 23.965 12.4598 24.047 12.4598C24.1289 12.4598 24.2002 12.4296 24.2608 12.3692L26.6906 9.92195C26.7505 9.86155 26.7805 9.78975 26.7805 9.70721C26.7812 9.624 26.7512 9.55287 26.6906 9.49181Z" fill="white"/>
<path fill-rule="evenodd" clip-rule="evenodd" d="M15.8949 7.14591C16.3746 6.7963 16.7917 6.36213 17.1195 5.86623C16.6764 6.06284 16.2054 6.19638 15.7111 6.25543C16.2174 5.95078 16.6065 5.46629 16.7903 4.88919C16.3147 5.17103 15.7917 5.37771 15.23 5.48977C14.7837 5.00931 14.1468 4.70801 13.4392 4.70801C12.0841 4.70801 10.9862 5.81657 10.9862 7.1808C10.9862 7.37406 11.0075 7.56397 11.0515 7.7418C9.00813 7.64114 7.19999 6.65538 5.99078 5.16163C5.78025 5.52534 5.659 5.95078 5.659 6.40374C5.659 7.26334 6.09272 8.01692 6.75028 8.46116C6.34655 8.44706 5.97013 8.33768 5.63835 8.15248V8.18536C5.63835 9.38049 6.48313 10.379 7.60905 10.6065C7.40252 10.6622 7.18333 10.693 6.96081 10.693C6.80158 10.693 6.65035 10.6776 6.50111 10.6488C6.81358 11.6292 7.71765 12.3465 8.79027 12.3653C7.95216 13.0276 6.89352 13.4229 5.74361 13.4229C5.54641 13.4229 5.3512 13.4135 5.158 13.3893C6.24661 14.0919 7.53443 14.5012 8.92086 14.5012C13.4352 14.5012 15.9036 10.732 15.9036 7.46801C15.9023 7.36064 15.9003 7.25395 15.8949 7.14591Z" fill="white"/>
</svg>
