<svg width="33" height="20" viewBox="0 0 33 20" fill="none" xmlns="http://www.w3.org/2000/svg">
<path d="M31.2817 19.5556H2.50136C1.61093 19.5556 0.888916 18.8328 0.888916 17.9424V1.61252C0.888916 0.722043 1.61093 0 2.50136 0H31.2817C32.1722 0 32.8942 0.722043 32.8942 1.61252V17.9424C32.8949 18.8328 32.1728 19.5556 31.2817 19.5556Z" fill="#33AD73"/>
<path d="M28.1924 9.4921L25.7452 7.04481C25.6848 6.98442 25.613 6.95422 25.5305 6.95422C25.448 6.95422 25.3762 6.98442 25.3158 7.04481C25.2554 7.10521 25.2252 7.17701 25.2252 7.26022V8.48353H24.1549C21.8829 8.48353 20.4892 9.12571 19.9732 10.4094C19.8041 10.8362 19.7202 11.367 19.7202 12.0011C19.7202 12.5299 19.9228 13.2486 20.3275 14.1565C20.3369 14.1787 20.3536 14.2169 20.3778 14.2713C20.4019 14.3256 20.4234 14.3733 20.4422 14.4149C20.4617 14.4565 20.4818 14.4914 20.5046 14.5202C20.5429 14.5746 20.5871 14.6014 20.6381 14.6014C20.6858 14.6014 20.7234 14.5853 20.7502 14.5538C20.777 14.5222 20.7905 14.482 20.7905 14.4343C20.7905 14.4055 20.7864 14.3632 20.7784 14.3075C20.7703 14.2518 20.7663 14.2142 20.7663 14.1954C20.7502 13.9787 20.7421 13.7827 20.7421 13.6076C20.7421 13.2855 20.7703 12.9976 20.826 12.7426C20.8817 12.4876 20.9589 12.2669 21.0575 12.081C21.1562 11.8944 21.2837 11.7334 21.44 11.5985C21.5963 11.463 21.7641 11.3522 21.9439 11.2663C22.1238 11.1804 22.3358 11.1127 22.5794 11.063C22.823 11.0134 23.0686 10.9791 23.3155 10.9603C23.5624 10.9409 23.8422 10.9315 24.1543 10.9315H25.2245V12.1548C25.2245 12.2373 25.2547 12.3091 25.3151 12.3695C25.3755 12.4299 25.4473 12.4601 25.5298 12.4601C25.6124 12.4601 25.6842 12.4299 25.7452 12.3695L28.1924 9.92224C28.2528 9.86185 28.283 9.79005 28.283 9.70751C28.283 9.6243 28.2528 9.55317 28.1924 9.4921Z" fill="white"/>
<path fill-rule="evenodd" clip-rule="evenodd" d="M17.1852 9.28557C17.1852 12.0129 14.9567 14.2254 12.2082 14.2254C11.3352 14.2254 10.5144 14.0022 9.80185 13.6105L7.04529 14.4861L7.94364 11.8364C7.49046 11.0917 7.22977 10.2187 7.22977 9.28557C7.22977 6.55694 9.45828 4.3457 12.2082 4.3457C14.9567 4.3457 17.1852 6.55694 17.1852 9.28557ZM12.2082 5.1318C9.89944 5.1318 8.02252 6.99411 8.02252 9.28423C8.02252 10.192 8.31796 11.0342 8.81927 11.7187L8.29657 13.2629L9.90479 12.7522C10.5652 13.1853 11.3566 13.4393 12.2068 13.4393C14.5142 13.4393 16.3911 11.577 16.3911 9.2869C16.3925 6.99545 14.5142 5.1318 12.2082 5.1318ZM14.7214 10.4233C14.6907 10.3725 14.6091 10.3431 14.4875 10.2816C14.3658 10.2214 13.7656 9.92728 13.6533 9.88718C13.541 9.84707 13.4594 9.82701 13.3792 9.94734C13.2977 10.069 13.0637 10.3417 12.9929 10.4219C12.922 10.5035 12.8512 10.5128 12.7282 10.4527C12.6065 10.3925 12.2122 10.2642 11.7469 9.85242C11.3847 9.53156 11.14 9.1345 11.0678 9.01418C10.997 8.89385 11.0612 8.82835 11.1213 8.76685C11.1761 8.71204 11.243 8.62514 11.3045 8.55562C11.3659 8.48476 11.386 8.43396 11.4261 8.35374C11.4662 8.27353 11.4462 8.20267 11.4154 8.14251C11.3847 8.08235 11.1414 7.48609 11.0398 7.24411C10.9382 7.00213 10.8366 7.01149 10.7657 7.01149C10.6949 7.01149 10.5625 7.03288 10.5625 7.03288C10.5625 7.03288 10.3179 7.06363 10.2069 7.18395C10.0946 7.30427 9.78046 7.59839 9.78046 8.19332C9.78046 8.78958 10.2176 9.36445 10.2778 9.446C10.3393 9.52755 11.1213 10.7896 12.3619 11.2735C13.6025 11.7575 13.6025 11.5971 13.8257 11.5757C14.049 11.5556 14.5476 11.2829 14.6492 11.0008C14.7508 10.7161 14.7508 10.4727 14.7214 10.4233Z" fill="white"/>
</svg>
