<svg width="11" height="24" viewBox="0 0 11 24" fill="none" xmlns="http://www.w3.org/2000/svg">
<path d="M11 12.0015C11 12.2875 10.9015 12.5605 10.731 12.7505L0.665235 23.8743C0.500327 24.0573 0.246561 24.0383 0.100866 23.8313C0.0360235 23.7393 -1.65084e-08 23.6223 -2.18411e-08 23.5003C-2.80917e-08 23.3573 0.0496326 23.2203 0.135289 23.1253L10.2003 12.0005L0.135288 0.874659C0.0496316 0.779661 -1.02094e-06 0.643661 -1.02723e-06 0.499664C-1.03256e-06 0.377666 0.0360225 0.259668 0.100064 0.168669C0.24656 -0.0383282 0.500326 -0.0573292 0.665234 0.125669L10.731 11.2515C10.755 11.2775 10.7767 11.3055 10.7975 11.3345C10.9288 11.5205 11 11.7565 11 12.0015Z" fill="#333333"/>
</svg>
